# xmcd CD database file
#
# Track frame offsets:
#	183
#	27883
#	45670
#	72560
#	96415
#	117338
#	146383
#	165263
#	185128
#	214930
#	232515
#	252103
#	282970
#
# Disc length: 4133 seconds
#
# Revision: 7
# Processed by: cddbd v1.5.2PL0 Copyright (c) Steve Scherf et al.
# Submitted via: CDex 1.40PlusFr
#
DISCID=b510230d
DTITLE=Paul PERSONNE - Rêve Sidéral d'un Naïf Idéal
DYEAR=1994
DGENRE=Blues
TTITLE0=01- Visions
TTITLE1=02- Le Jeu du Je
TTITLE2=03- Un Tax'Man pour l'Ile au Trésor
TTITLE3=04- Loco Loco
TTITLE4=05- Toutes les Nuits J'Conte les Jours
TTITLE5=06- Faire Semblant
TTITLE6=07- Plus Jamais M'Laisser Blueser
TTITLE7=08- C'est pour Rire
TTITLE8=09- P'tites Bestioles
TTITLE9=10- Courant d'Air
TTITLE10=11- Jet Set Boogie
TTITLE11=12- Rêve Sidéral d'un Naïf Idéal
TTITLE12=13- Célia
EXTD=Paul Personne - Voix, Guitares Acoustiques and Electriques, Harmonica\n
EXTD=Philippe Floris - Batterie, Percussions\n
EXTD=Christophe Garreau - Basse, Contrebasse\n
EXTD=Olivier Laneluc - Piano, Orgue Hammond, Piano Electrique, Synthés\n
EXTD=Michel Billès -  Sax Alto, Ténor, Baryton\n
EXTD=Gloria H.G.\n
EXTD=\n
EXTD=Enregistré au studio Miraval\n
EXTD=Réalisé par Paul Personne and Ian Taylor\n
EXTD=523292 2 (P)+(C) 1994 Polydor France\n
EXTD=\n
EXTD=Envoye par Stephane Grienenberger, 05/01/1999 YEAR: 1994 ID3G: 0
EXTT0=Paul Personne - Christian Dupont - Paul Personne
EXTT1=Paul Personne - Christian Dupont - Paul Personne
EXTT2=Boris Bergman - Paul Personne
EXTT3=Paul Personne - Christian Dupont - Paul Personne
EXTT4=Paul Personne
EXTT5=Paul Personne
EXTT6=Boris Bergman - Paul Personne
EXTT7=Paul Personne
EXTT8=Christian Dupont - Paul Personne
EXTT9=Christian Dupont - Paul Personne
EXTT10=Christian Dupont - Paul Personne
EXTT11=Paul Personne
EXTT12=Boris Bergman - Paul Personne
PLAYORDER=
